<svg width="713" height="1065" viewBox="0 0 713 1065" fill="none" xmlns="http://www.w3.org/2000/svg">
<path d="M-137.056 417.738C92.3167 433.49 -246.016 521.344 333.5 83.7914C913.016 -353.762 655.5 1064.79 655.5 1064.79H-137.056C-137.056 1064.79 -366.429 401.986 -137.056 417.738Z" fill="url(#paint0_linear)"/>
<g clip-path="url(#clip0)">
<path d="M699 1042.33C684.58 1061.64 654.648 1063.68 654.648 1063.68C654.648 1063.68 648.094 1034.4 662.514 1015.09C676.934 995.777 706.866 993.745 706.866 993.745C706.866 993.745 713.42 1023.02 699 1042.33Z" fill="#E6E6E6"/>
<path d="M625.544 1049.59C635.059 1062.33 654.811 1063.68 654.811 1063.68C654.811 1063.68 659.135 1044.36 649.62 1031.61C640.105 1018.87 620.354 1017.53 620.354 1017.53C620.354 1017.53 616.029 1036.85 625.544 1049.59Z" fill="#E6E6E6"/>
<path d="M690.056 1064.84H432.318V1062.73H690.438L690.056 1064.84Z" fill="#3F3D56"/>
<path d="M680.34 433.393H102V754.693H680.34V433.393Z" fill="#E6E6E6"/>
<path d="M133.583 723.109H648.758V464.976H133.583V723.109Z" fill="white"/>
<path d="M679.495 414.791H102.846V443.539H679.495V414.791Z" fill="#990003"/>
<path d="M267.657 555.994H162.812V630.4H267.657V555.994Z" fill="#E6E6E6"/>
<path d="M619.528 555.994H330.358V564.449H619.528V555.994Z" fill="#E6E6E6"/>
<path d="M619.528 589.815H330.358V598.27H619.528V589.815Z" fill="#E6E6E6"/>
<path d="M619.528 623.636H330.358V632.091H619.528V623.636Z" fill="#E6E6E6"/>
<path d="M525.036 760.965L522.216 777.184C522.216 777.184 508.818 814.556 512.344 849.812C515.869 885.069 518.69 909.749 518.69 909.749C518.69 909.749 508.113 998.595 512.344 1030.33C512.344 1030.33 523.626 1045.84 538.434 1029.62L549.716 912.569L561.703 829.363L572.28 922.441L579.331 1028.21C579.331 1028.21 589.203 1038.79 604.011 1029.62L602.601 909.749C602.601 909.749 615.293 808.209 613.178 799.748C611.062 791.286 596.96 758.145 596.96 758.145L525.036 760.965Z" fill="#2F2E41"/>
<path d="M517.985 1031.03L518.69 1045.84C518.69 1045.84 507.943 1062.6 521.34 1062.6C521.474 1062.6 521.208 1062.6 521.34 1062.6C531.029 1062.57 539.786 1066.93 538.641 1057.31L537.023 1043.72L534.203 1028.92L517.985 1031.03Z" fill="#2F2E41"/>
<path d="M599.696 1031.03L598.991 1045.84C598.991 1045.84 609.738 1062.6 596.34 1062.6C596.206 1062.6 596.473 1062.6 596.34 1062.6C586.651 1062.57 577.894 1066.93 579.04 1057.31L580.657 1043.72L583.478 1028.92L599.696 1031.03Z" fill="#2F2E41"/>
<path d="M557.825 638.625C570.287 638.625 580.389 628.523 580.389 616.061C580.389 603.599 570.287 593.497 557.825 593.497C545.363 593.497 535.261 603.599 535.261 616.061C535.261 628.523 545.363 638.625 557.825 638.625Z" fill="#9F616A"/>
<path d="M547.953 630.869C547.953 630.869 550.773 663.305 542.312 668.241C533.85 673.177 577.568 671.061 577.568 671.061C577.568 671.061 567.696 632.984 568.402 628.753L547.953 630.869Z" fill="#FFB8B8"/>
<path d="M590.614 651.67C590.614 651.67 562.409 638.977 522.921 651.67C522.921 651.67 505.645 656.253 503.53 661.894C501.415 667.535 527.152 732.055 524.331 743.337C522.635 750.253 522.158 757.411 522.921 764.491C522.921 764.491 584.973 756.03 599.781 762.376C599.781 762.376 594.14 744.042 595.55 731.35C596.96 718.658 608.947 659.426 608.947 659.426C608.947 659.426 602.601 653.08 590.614 651.67Z" fill="#F0510A"/>
<path d="M615.294 819.492C615.294 819.492 604.717 851.928 615.999 852.633C627.281 853.338 622.345 827.953 622.345 827.953L620.935 819.492H615.294Z" fill="#9F616A"/>
<path d="M594.139 663.657L608.947 659.427C608.947 659.427 617.408 665.773 617.408 674.234C617.408 682.696 615.998 736.991 615.998 736.991L626.575 818.081L610.357 823.723L591.318 736.286L594.139 663.657Z" fill="#F0510A"/>
<path d="M499.652 819.492C499.652 819.492 510.229 851.928 498.947 852.633C487.664 853.338 492.6 827.953 492.6 827.953L494.011 819.492H499.652Z" fill="#9F616A"/>
<path d="M520.805 663.657L505.997 659.427C505.997 659.427 497.536 665.773 497.536 674.234C497.536 682.696 498.946 736.991 498.946 736.991L488.369 818.081L504.587 823.723L523.626 736.286L520.805 663.657Z" fill="#F0510A"/>
<path d="M567.696 582.919C567.696 582.919 547.953 579.394 543.722 605.484C539.491 631.574 541.606 641.445 534.555 644.266C527.504 647.086 525.388 650.612 526.799 656.253C528.209 661.894 533.145 664.01 526.094 674.587C519.042 685.164 541.606 682.343 559.94 690.805C578.273 699.266 620.581 687.279 614.94 677.407C609.299 667.535 600.133 671.766 604.363 660.484C608.594 649.202 610.004 647.086 604.363 640.035C598.722 632.984 607.184 589.266 567.696 582.919Z" fill="#2F2E41"/>
</g>
<defs>
<linearGradient id="paint0_linear" x1="176" y1="134.791" x2="176" y2="1064.79" gradientUnits="userSpaceOnUse">
<stop stop-color="#F0D5A4" stop-opacity="0"/>
<stop offset="1" stop-color="#F0D5A4"/>
</linearGradient>
<clipPath id="clip0">
<rect width="606.352" height="650.047" fill="white" transform="translate(102 414.791)"/>
</clipPath>
</defs>
</svg>
