<svg width="532" height="481" viewBox="0 0 532 481" fill="none" xmlns="http://www.w3.org/2000/svg">
<g opacity="0.5" filter="url(#filter0_d)">
<path fill-rule="evenodd" clip-rule="evenodd" d="M28 225.284L5 202V472H28V225.284ZM33 472H275L171.058 369.564C162.982 377.269 152.043 382 140 382C115.147 382 95 361.853 95 337C95 324.896 99.7791 313.907 107.553 305.819L33 230.346V472Z" fill="#F0D5A4"/>
</g>
<g opacity="0.5" filter="url(#filter1_d)">
<path fill-rule="evenodd" clip-rule="evenodd" d="M29.491 221.02L6.22559 198L276.225 198.226L276.206 221.227L29.491 221.02ZM276.202 226.227L276 468.226L173.65 364.198C181.362 356.128 186.102 345.193 186.113 333.15C186.133 308.297 166.003 288.133 141.15 288.112C129.046 288.102 118.053 292.872 109.959 300.64L34.5485 226.024L276.202 226.227Z" fill="#F0D5A4"/>
</g>
<g opacity="0.5" filter="url(#filter2_d)">
<path fill-rule="evenodd" clip-rule="evenodd" d="M416.446 272.135L374 297L376.527 301.314L421.406 275.025L439.225 285.407L387 316L389.527 320.314L444.184 288.296L527.236 336.687L315.935 457.566L315.935 213.572L416.446 272.135ZM310.935 210.658L291.301 199.219L290.218 472.278L310.935 460.427L310.935 210.658Z" fill="#F0510A"/>
</g>
<g opacity="0.5" filter="url(#filter3_d)">
<path fill-rule="evenodd" clip-rule="evenodd" d="M71.2737 90.2532C67.8543 80.169 66 69.3624 66 58.1227C66 36.446 72.897 16.3802 84.6164 0C38.6648 9.02577 4 49.526 4 98.1227C4 107.142 5.19415 115.883 7.43297 124.196L71.2737 90.2532ZM16.6931 146.919C33.8058 177.472 66.4912 198.123 104 198.123C137.552 198.123 167.244 181.599 185.384 156.245C179.113 157.477 172.632 158.123 166 158.123C130.716 158.123 99.7009 139.849 81.9009 112.25L16.6931 146.919Z" fill="#FF2F2F"/>
</g>
<defs>
<filter id="filter0_d" x="1" y="202" width="278" height="278" filterUnits="userSpaceOnUse" color-interpolation-filters="sRGB">
<feFlood flood-opacity="0" result="BackgroundImageFix"/>
<feColorMatrix in="SourceAlpha" type="matrix" values="0 0 0 0 0 0 0 0 0 0 0 0 0 0 0 0 0 0 127 0"/>
<feOffset dy="4"/>
<feGaussianBlur stdDeviation="2"/>
<feColorMatrix type="matrix" values="0 0 0 0 0 0 0 0 0 0 0 0 0 0 0 0 0 0 0.25 0"/>
<feBlend mode="normal" in2="BackgroundImageFix" result="effect1_dropShadow"/>
<feBlend mode="normal" in="SourceGraphic" in2="effect1_dropShadow" result="shape"/>
</filter>
<filter id="filter1_d" x="2" y="198" width="278.226" height="278.226" filterUnits="userSpaceOnUse" color-interpolation-filters="sRGB">
<feFlood flood-opacity="0" result="BackgroundImageFix"/>
<feColorMatrix in="SourceAlpha" type="matrix" values="0 0 0 0 0 0 0 0 0 0 0 0 0 0 0 0 0 0 127 0"/>
<feOffset dy="4"/>
<feGaussianBlur stdDeviation="2"/>
<feColorMatrix type="matrix" values="0 0 0 0 0 0 0 0 0 0 0 0 0 0 0 0 0 0 0.25 0"/>
<feBlend mode="normal" in2="BackgroundImageFix" result="effect1_dropShadow"/>
<feBlend mode="normal" in="SourceGraphic" in2="effect1_dropShadow" result="shape"/>
</filter>
<filter id="filter2_d" x="286.218" y="199.219" width="245.018" height="281.059" filterUnits="userSpaceOnUse" color-interpolation-filters="sRGB">
<feFlood flood-opacity="0" result="BackgroundImageFix"/>
<feColorMatrix in="SourceAlpha" type="matrix" values="0 0 0 0 0 0 0 0 0 0 0 0 0 0 0 0 0 0 127 0"/>
<feOffset dy="4"/>
<feGaussianBlur stdDeviation="2"/>
<feColorMatrix type="matrix" values="0 0 0 0 0 0 0 0 0 0 0 0 0 0 0 0 0 0 0.25 0"/>
<feBlend mode="normal" in2="BackgroundImageFix" result="effect1_dropShadow"/>
<feBlend mode="normal" in="SourceGraphic" in2="effect1_dropShadow" result="shape"/>
</filter>
<filter id="filter3_d" x="0" y="0" width="189.384" height="206.123" filterUnits="userSpaceOnUse" color-interpolation-filters="sRGB">
<feFlood flood-opacity="0" result="BackgroundImageFix"/>
<feColorMatrix in="SourceAlpha" type="matrix" values="0 0 0 0 0 0 0 0 0 0 0 0 0 0 0 0 0 0 127 0"/>
<feOffset dy="4"/>
<feGaussianBlur stdDeviation="2"/>
<feColorMatrix type="matrix" values="0 0 0 0 0 0 0 0 0 0 0 0 0 0 0 0 0 0 0.25 0"/>
<feBlend mode="normal" in2="BackgroundImageFix" result="effect1_dropShadow"/>
<feBlend mode="normal" in="SourceGraphic" in2="effect1_dropShadow" result="shape"/>
</filter>
</defs>
</svg>
